<svg xmlns="http://www.w3.org/2000/svg" viewBox="0 -100 3000 100" fill="#FAF7F0">
  <path
    d="M0 0v100c166.7 0 166.7-66 333.3-66S500 77 666.7 77 833.3 28 1000 28V0H0Z"
    opacity=".5"
    transform="scale(1,-1)"
  />
  <path
    d="M0 0v100c166.7 0 166.7-66 333.3-66S500 70 666.7 70 833.3 16 1000 16V0H0Z"
    opacity=".5"
    transform="scale(1,-1)"
  />
  <path
    d="M0 0v100c166.7 0 166.7-66 333.3-66S500 63 666.7 63 833.3 4 1000 4V0H0Z"
    transform="scale(1,-1)"
  />
  <path
    d="M1000 0v100c166.7 0 166.7-66 333.3-66S1500 77 1666.7 77 1833.3 28 2000 28V0H1000Z"
    opacity=".5"
    transform="scale(-1, -1) translate(-3000, 0)"
  />
  <path
    d="M1000 0v100c166.7 0 166.7-66 333.3-66S1500 70 1666.7 70 1833.3 16 2000 16V0H1000Z"
    opacity=".5"
    transform="scale(-1, -1) translate(-3000, 0)"
  />
  <path
    d="M1000 0v100c166.7 0 166.7-66 333.3-66S1500 63 1666.7 63 1833.3 4 2000 4V0H1000Z"
    transform="scale(-1, -1) translate(-3000, 0)"
  />
  <path
    d="M2000 0v100c166.7 0 166.7-66 333.3-66S2500 77 2666.7 77 2833.3 28 3000 28V0H2000Z"
    opacity=".5"
    transform="scale(1,-1)"
  />
  <path
    d="M2000 0v100c166.7 0 166.7-66 333.3-66S2500 70 2666.7 70 2833.3 16 3000 16V0H2000Z"
    opacity=".5"
    transform="scale(1,-1)"
  />
  <path
    d="M2000 0v100c166.7 0 166.7-66 333.3-66S2500 63 2666.7 63 2833.3 4 3000 4V0H2000Z"
    transform="scale(1,-1)"
  />
</svg>